<svg width="229" height="36" viewBox="0 0 229 36" fill="none" xmlns="http://www.w3.org/2000/svg">
<path d="M0.829102 7.16797C0.829102 7.05078 0.84082 6.85156 0.864258 6.57031C0.864258 6.26562 0.864258 5.96094 0.864258 5.65625C0.864258 5.32812 0.875977 5.02344 0.899414 4.74219C0.899414 4.46094 0.899414 4.27344 0.899414 4.17969C1.48535 3.54688 1.96582 3.17188 2.34082 3.05469C2.73926 2.9375 3.05566 3.00781 3.29004 3.26562C3.52441 3.5 3.68848 3.88672 3.78223 4.42578C3.89941 4.96484 3.98145 5.57422 4.02832 6.25391C4.0752 6.93359 4.09863 7.64844 4.09863 8.39844C4.09863 9.14844 4.11035 9.85156 4.13379 10.5078C4.15723 11.1406 4.2041 11.7031 4.27441 12.1953C4.34473 12.6875 4.47363 13.0156 4.66113 13.1797H16.7197C17.2119 13.1797 17.5635 13.0273 17.7744 12.7227C17.9854 12.418 18.1025 12.0195 18.126 11.5273C18.1729 11.0352 18.1611 10.4727 18.0908 9.83984C18.0205 9.20703 17.9502 8.5625 17.8799 7.90625C17.833 7.22656 17.8096 6.57031 17.8096 5.9375C17.833 5.28125 17.9385 4.70703 18.126 4.21484C18.3369 3.72266 18.6533 3.32422 19.0752 3.01953C19.4971 2.71484 20.1182 2.5625 20.9385 2.5625C21.2432 3.00781 21.4307 3.5 21.501 4.03906C21.5713 4.55469 21.583 5.09375 21.5361 5.65625C21.5127 6.21875 21.4541 6.78125 21.3604 7.34375C21.29 7.88281 21.2549 8.41016 21.2549 8.92578C21.2549 10.3086 21.3369 11.6914 21.501 13.0742C21.6885 14.457 21.876 15.8398 22.0635 17.2227C22.2744 18.6055 22.4619 19.9883 22.626 21.3711C22.8135 22.7305 22.9072 24.0781 22.9072 25.4141C22.9541 26.8672 22.8604 27.9102 22.626 28.543C22.3916 29.1523 22.0986 29.4219 21.7471 29.3516C21.3955 29.3047 20.9971 28.9531 20.5518 28.2969C20.1299 27.6406 19.7314 26.7617 19.3564 25.6602C19.0049 24.5586 18.7119 23.2695 18.4775 21.793C18.2666 20.293 18.1846 18.6758 18.2314 16.9414H5.54004C5.7041 18.5586 5.91504 20.082 6.17285 21.5117C6.4541 22.9414 6.66504 24.207 6.80566 25.3086C6.96973 26.3867 7.02832 27.2539 6.98145 27.9102C6.95801 28.543 6.72363 28.8711 6.27832 28.8945C5.59863 28.8945 5.02441 28.6719 4.55566 28.2266C4.08691 27.7578 3.67676 27.125 3.3252 26.3281C2.99707 25.5312 2.72754 24.6055 2.5166 23.5508C2.30566 22.4727 2.12988 21.3477 1.98926 20.1758C1.84863 18.9805 1.73145 17.7617 1.6377 16.5195C1.56738 15.2773 1.49707 14.082 1.42676 12.9336C1.35645 11.7852 1.27441 10.7188 1.18066 9.73438C1.08691 8.72656 0.969727 7.87109 0.829102 7.16797ZM26.4229 15.8164C26.4229 15.6758 26.4229 15.4531 26.4229 15.1484C26.4463 14.8203 26.458 14.4805 26.458 14.1289C26.4814 13.7773 26.4932 13.4375 26.4932 13.1094C26.5166 12.7812 26.5283 12.5469 26.5283 12.4062C26.7861 12.0312 27.1143 11.7266 27.5127 11.4922C27.9346 11.2578 28.3564 11.0703 28.7783 10.9297C28.8486 12.1953 29.0479 13.543 29.376 14.9727C29.7041 16.4023 30.0557 17.8438 30.4307 19.2969C30.8057 20.7266 31.1338 22.1445 31.415 23.5508C31.7197 24.957 31.8721 26.2695 31.8721 27.4883C31.8721 28.543 31.333 29.0703 30.2549 29.0703C29.5986 29.0703 29.0479 28.8008 28.6025 28.2617C28.1572 27.7227 27.7939 27.043 27.5127 26.2227C27.2549 25.3789 27.0439 24.4531 26.8799 23.4453C26.7158 22.4141 26.5986 21.4062 26.5283 20.4219C26.4814 19.4375 26.4463 18.5352 26.4229 17.7148C26.4229 16.8945 26.4229 16.2617 26.4229 15.8164ZM26.915 2.63281C27.3604 2.82031 27.7354 3.125 28.04 3.54688C28.3447 3.96875 28.4736 4.35547 28.4268 4.70703C28.4033 5.03516 28.1455 5.26953 27.6533 5.41016C27.1611 5.52734 26.3408 5.38672 25.1924 4.98828C25.1924 4.35547 25.3096 3.80469 25.5439 3.33594C25.8018 2.86719 26.2588 2.63281 26.915 2.63281ZM38.0596 23.6562C38.3174 23.6562 38.5283 23.7148 38.6924 23.832C38.8799 23.9492 39.0088 24.1016 39.0791 24.2891C39.1494 24.4531 39.1963 24.6523 39.2197 24.8867C39.2432 25.0977 39.2549 25.3086 39.2549 25.5195C39.2549 26.0117 39.1963 26.5977 39.0791 27.2773C38.9854 27.9336 38.833 28.625 38.6221 29.3516C38.4111 30.0781 38.1416 30.793 37.8135 31.4961C37.5088 32.2227 37.1455 32.8555 36.7236 33.3945C36.3018 33.957 35.8213 34.4023 35.2822 34.7305C34.7666 35.082 34.1924 35.2578 33.5596 35.2578C33.5596 34.7656 33.6064 34.1328 33.7002 33.3594C33.8174 32.5859 33.9697 31.7656 34.1572 30.8984C34.3682 30.0312 34.6143 29.1758 34.8955 28.332C35.1768 27.4648 35.4814 26.6914 35.8096 26.0117C36.1377 25.3086 36.4893 24.7461 36.8643 24.3242C37.2393 23.8789 37.6377 23.6562 38.0596 23.6562ZM56.833 11.2812C56.833 11.2109 56.8447 11.1523 56.8682 11.1055C56.8682 11.0586 56.8799 11 56.9033 10.9297C56.9971 10.8125 57.1377 10.6602 57.3252 10.4727C57.5127 10.2852 57.6299 10.1914 57.6768 10.1914H64.7432C64.7432 9.93359 64.708 9.52344 64.6377 8.96094C64.5674 8.39844 64.4971 7.77734 64.4268 7.09766C64.3799 6.41797 64.3682 5.71484 64.3916 4.98828C64.415 4.23828 64.5088 3.57031 64.6729 2.98438C64.8604 2.375 65.1416 1.88281 65.5166 1.50781C65.915 1.10938 66.4658 0.910156 67.1689 0.910156C67.1689 3.27734 67.333 5.17578 67.6611 6.60547C67.9893 8.03516 68.4229 9.13672 68.9619 9.91016C69.5244 10.6836 70.1572 11.1875 70.8604 11.4219C71.5635 11.6562 72.2783 11.7617 73.0049 11.7383C73.7549 11.6914 74.4814 11.5742 75.1846 11.3867C75.8877 11.1992 76.5088 11.0703 77.0479 11C77.6104 10.9297 78.0557 10.9883 78.3838 11.1758C78.7119 11.3398 78.876 11.75 78.876 12.4062C78.876 12.8984 78.7588 13.25 78.5244 13.4609C78.3135 13.6719 77.8916 13.8359 77.2588 13.9531C77.0713 13.9766 76.7549 14.0234 76.3096 14.0938C75.8877 14.1406 75.4072 14.1875 74.8682 14.2344C74.3291 14.2812 73.7549 14.3398 73.1455 14.4102C72.5361 14.457 71.9619 14.5039 71.4229 14.5508C70.8838 14.5977 70.3916 14.6328 69.9463 14.6562C69.501 14.6562 69.1729 14.6562 68.9619 14.6562C68.9619 14.7734 68.9502 14.9727 68.9268 15.2539C68.9033 15.5352 68.8916 15.7227 68.8916 15.8164C68.8916 16.8477 69.0557 17.8555 69.3838 18.8398C69.7119 19.8008 70.0635 20.7617 70.4385 21.7227C70.8369 22.6836 71.2002 23.6445 71.5283 24.6055C71.8564 25.5664 72.0205 26.5625 72.0205 27.5938C72.0205 27.7812 71.9971 27.9805 71.9502 28.1914C71.9268 28.3789 71.8564 28.5547 71.7393 28.7188C71.6455 28.8594 71.4932 28.9648 71.2822 29.0352C71.0947 29.1289 70.8252 29.1172 70.4736 29C69.583 28.7656 68.915 28.2617 68.4697 27.4883C68.0479 26.7148 67.7314 25.8008 67.5205 24.7461C67.3096 23.668 67.1689 22.5312 67.0986 21.3359C67.0283 20.1406 66.9111 19.0273 66.7471 17.9961C66.6064 16.9414 66.3721 16.0508 66.0439 15.3242C65.7158 14.5742 65.1885 14.1172 64.4619 13.9531L57.6768 12.4062C57.583 12.4062 57.4424 12.3125 57.2549 12.125C57.0674 11.9141 56.9502 11.7617 56.9033 11.668C56.8799 11.6211 56.8682 11.5625 56.8682 11.4922C56.8447 11.4453 56.833 11.375 56.833 11.2812ZM81.2314 6.14844C81.2314 5.89062 81.2549 5.57422 81.3018 5.19922C81.3721 4.80078 81.4775 4.42578 81.6182 4.07422C81.7822 3.72266 81.9814 3.42969 82.2158 3.19531C82.4502 2.9375 82.7549 2.80859 83.1299 2.80859C83.1533 2.80859 83.2119 2.82031 83.3057 2.84375C83.3994 2.86719 83.458 2.87891 83.4814 2.87891C83.8799 4.33203 84.1143 5.77344 84.1846 7.20312C84.2549 8.63281 84.2314 10.0273 84.1143 11.3867C83.9971 12.7227 83.8213 14.0234 83.5869 15.2891C83.3525 16.5312 83.1533 17.6797 82.9893 18.7344C82.8486 19.7891 82.7549 20.7383 82.708 21.582C82.6846 22.4258 82.8135 23.1406 83.0947 23.7266C83.0479 23.3516 83.0127 22.9062 82.9893 22.3906C82.9893 21.8516 83.0361 21.3008 83.1299 20.7383C83.2471 20.1758 83.4229 19.6133 83.6572 19.0508C83.915 18.4883 84.2783 17.9844 84.7471 17.5391C85.2158 17.0938 85.8135 16.7422 86.54 16.4844C87.29 16.2266 88.2158 16.0977 89.3174 16.0977C90.4658 16.0977 91.4502 16.2969 92.2705 16.6953C93.1143 17.0938 93.8057 17.6445 94.3447 18.3477C94.8838 19.0273 95.2822 19.8359 95.54 20.7734C95.8213 21.6875 95.9619 22.6719 95.9619 23.7266C95.9619 24.2188 95.9502 24.7812 95.9268 25.4141C95.9268 26.0234 95.8447 26.5977 95.6807 27.1367C95.54 27.6523 95.2705 28.0977 94.8721 28.4727C94.4971 28.8242 93.9346 29 93.1846 29C93.1846 28.625 93.208 28.1211 93.2549 27.4883C93.3018 26.832 93.3252 26.1406 93.3252 25.4141C93.3486 24.6875 93.3252 23.9492 93.2549 23.1992C93.208 22.4492 93.0557 21.7812 92.7979 21.1953C92.54 20.5859 92.1768 20.0938 91.708 19.7188C91.2627 19.3203 90.6416 19.1211 89.8447 19.1211C89.5635 19.1211 89.2119 19.1445 88.79 19.1914C88.3916 19.2148 87.9814 19.3203 87.5596 19.5078C87.1377 19.6953 86.7275 19.9883 86.3291 20.3867C85.9307 20.7617 85.6143 21.2891 85.3799 21.9688C85.1455 22.625 85.0049 23.4688 84.958 24.5C84.9346 25.5078 85.0635 26.75 85.3447 28.2266C85.1807 28.6484 84.9697 28.8945 84.7119 28.9648C84.4775 29.0352 84.1729 29.0703 83.7979 29.0703C83.0479 29.0703 82.4268 28.8125 81.9346 28.2969C81.4658 27.7578 81.1025 27.043 80.8447 26.1523C80.5869 25.2617 80.4111 24.2305 80.3174 23.0586C80.2471 21.8867 80.2236 20.668 80.2471 19.4023C80.2705 18.1133 80.3291 16.8125 80.4229 15.5C80.54 14.1641 80.6455 12.9102 80.7393 11.7383C80.8564 10.543 80.9619 9.46484 81.0557 8.50391C81.1729 7.51953 81.2314 6.73438 81.2314 6.14844ZM112.485 24.4648C111.595 25.0742 110.821 25.625 110.165 26.1172C109.532 26.5859 108.911 26.9844 108.302 27.3125C107.692 27.6406 107.036 27.8867 106.333 28.0508C105.653 28.2148 104.81 28.2969 103.802 28.2969C101.622 28.2969 100.005 27.7227 98.9502 26.5742C97.8955 25.4023 97.3682 23.668 97.3682 21.3711C97.3682 20.4805 97.4854 19.5547 97.7197 18.5938C97.9541 17.6328 98.2939 16.6836 98.7393 15.7461C99.208 14.7852 99.7588 13.8828 100.392 13.0391C101.024 12.1719 101.739 11.4102 102.536 10.7539C103.333 10.0977 104.177 9.58203 105.067 9.20703C105.981 8.80859 106.942 8.60938 107.95 8.60938C109.638 8.77344 110.962 9.19531 111.923 9.875C112.884 10.5312 113.61 11.3867 114.103 12.4414C114.595 13.4727 114.935 14.6328 115.122 15.9219C115.31 17.1875 115.45 18.5 115.544 19.8594C115.661 21.2188 115.802 22.5781 115.966 23.9375C116.13 25.2969 116.47 26.5508 116.985 27.6992C116.681 28.4727 116.388 29.0117 116.106 29.3164C115.849 29.6445 115.556 29.7031 115.228 29.4922C114.899 29.2812 114.513 28.7656 114.067 27.9453C113.646 27.125 113.118 25.9648 112.485 24.4648ZM100.356 21.4414C100.356 22.7773 100.603 23.7617 101.095 24.3945C101.61 25.0039 102.513 25.3086 103.802 25.3086C104.763 25.3086 105.677 25.1445 106.544 24.8164C107.435 24.4648 108.208 23.9961 108.864 23.4102C109.521 22.8008 110.048 22.0742 110.446 21.2305C110.845 20.3867 111.044 19.4492 111.044 18.418C111.044 17.9961 111.056 17.4102 111.079 16.6602C111.103 15.8867 111.056 15.125 110.938 14.375C110.821 13.625 110.599 12.9805 110.271 12.4414C109.942 11.8789 109.45 11.5977 108.794 11.5977C107.575 11.5977 106.45 11.9141 105.419 12.5469C104.388 13.1562 103.497 13.9414 102.747 14.9023C101.997 15.8633 101.411 16.9297 100.989 18.1016C100.567 19.25 100.356 20.3633 100.356 21.4414ZM118.427 11.2812C118.427 11.2109 118.438 11.1523 118.462 11.1055C118.462 11.0586 118.474 11 118.497 10.9297C118.591 10.8125 118.731 10.6602 118.919 10.4727C119.106 10.2852 119.224 10.1914 119.271 10.1914H126.337C126.337 9.93359 126.302 9.52344 126.231 8.96094C126.161 8.39844 126.091 7.77734 126.021 7.09766C125.974 6.41797 125.962 5.71484 125.985 4.98828C126.009 4.23828 126.103 3.57031 126.267 2.98438C126.454 2.375 126.735 1.88281 127.11 1.50781C127.509 1.10938 128.06 0.910156 128.763 0.910156C128.763 3.27734 128.927 5.17578 129.255 6.60547C129.583 8.03516 130.017 9.13672 130.556 9.91016C131.118 10.6836 131.751 11.1875 132.454 11.4219C133.157 11.6562 133.872 11.7617 134.599 11.7383C135.349 11.6914 136.075 11.5742 136.778 11.3867C137.481 11.1992 138.103 11.0703 138.642 11C139.204 10.9297 139.649 10.9883 139.978 11.1758C140.306 11.3398 140.47 11.75 140.47 12.4062C140.47 12.8984 140.353 13.25 140.118 13.4609C139.907 13.6719 139.485 13.8359 138.853 13.9531C138.665 13.9766 138.349 14.0234 137.903 14.0938C137.481 14.1406 137.001 14.1875 136.462 14.2344C135.923 14.2812 135.349 14.3398 134.739 14.4102C134.13 14.457 133.556 14.5039 133.017 14.5508C132.478 14.5977 131.985 14.6328 131.54 14.6562C131.095 14.6562 130.767 14.6562 130.556 14.6562C130.556 14.7734 130.544 14.9727 130.521 15.2539C130.497 15.5352 130.485 15.7227 130.485 15.8164C130.485 16.8477 130.649 17.8555 130.978 18.8398C131.306 19.8008 131.657 20.7617 132.032 21.7227C132.431 22.6836 132.794 23.6445 133.122 24.6055C133.45 25.5664 133.614 26.5625 133.614 27.5938C133.614 27.7812 133.591 27.9805 133.544 28.1914C133.521 28.3789 133.45 28.5547 133.333 28.7188C133.239 28.8594 133.087 28.9648 132.876 29.0352C132.688 29.1289 132.419 29.1172 132.067 29C131.177 28.7656 130.509 28.2617 130.063 27.4883C129.642 26.7148 129.325 25.8008 129.114 24.7461C128.903 23.668 128.763 22.5312 128.692 21.3359C128.622 20.1406 128.505 19.0273 128.341 17.9961C128.2 16.9414 127.966 16.0508 127.638 15.3242C127.31 14.5742 126.782 14.1172 126.056 13.9531L119.271 12.4062C119.177 12.4062 119.036 12.3125 118.849 12.125C118.661 11.9141 118.544 11.7617 118.497 11.668C118.474 11.6211 118.462 11.5625 118.462 11.4922C118.438 11.4453 118.427 11.375 118.427 11.2812ZM141.876 5.65625C141.876 5.58594 141.899 5.48047 141.946 5.33984C141.993 5.19922 142.052 5.04688 142.122 4.88281C142.216 4.71875 142.298 4.56641 142.368 4.42578C142.462 4.28516 142.532 4.19141 142.579 4.14453C142.626 4.14453 142.685 4.13281 142.755 4.10938C142.802 4.10938 142.837 4.10938 142.86 4.10938C142.907 4.08594 142.942 4.07422 142.966 4.07422C143.411 4.07422 143.798 4.22656 144.126 4.53125C144.478 4.83594 144.771 5.21094 145.005 5.65625C145.239 6.10156 145.403 6.57031 145.497 7.0625C145.614 7.53125 145.673 7.94141 145.673 8.29297C145.673 8.52734 145.638 8.85547 145.567 9.27734C145.497 9.67578 145.38 10.0508 145.216 10.4023C145.075 10.7539 144.876 11.0703 144.618 11.3516C144.384 11.6094 144.091 11.7383 143.739 11.7383C143.341 11.7383 143.024 11.4805 142.79 10.9648C142.579 10.4258 142.392 9.81641 142.228 9.13672C142.087 8.43359 141.993 7.75391 141.946 7.09766C141.899 6.41797 141.876 5.9375 141.876 5.65625ZM153.829 27.418C154.204 27.1602 154.649 26.832 155.165 26.4336C155.704 26.0117 156.243 25.5664 156.782 25.0977C157.321 24.6289 157.825 24.1367 158.294 23.6211C158.763 23.1055 159.126 22.6133 159.384 22.1445C159.665 21.6523 159.806 21.1953 159.806 20.7734C159.806 20.3516 159.595 20 159.173 19.7188C158.423 19.7188 157.603 19.7539 156.712 19.8242C155.821 19.8711 154.931 19.8945 154.04 19.8945C153.149 19.8711 152.282 19.7891 151.438 19.6484C150.618 19.5078 149.88 19.25 149.224 18.875C148.567 18.5 148.04 17.9727 147.642 17.293C147.267 16.5898 147.079 15.6992 147.079 14.6211C147.079 13.3555 147.313 12.2188 147.782 11.2109C148.274 10.1797 148.919 9.27734 149.716 8.50391C150.513 7.70703 151.403 7.01562 152.388 6.42969C153.396 5.82031 154.403 5.30469 155.411 4.88281C156.021 5.04688 156.583 5.33984 157.099 5.76172C157.614 6.18359 158.06 6.65234 158.435 7.16797C158.271 7.68359 157.942 8.08203 157.45 8.36328C156.981 8.64453 156.431 8.89062 155.798 9.10156C155.188 9.3125 154.544 9.53516 153.864 9.76953C153.185 10.0039 152.563 10.3203 152.001 10.7188C151.462 11.0938 151.005 11.5977 150.63 12.2305C150.255 12.8398 150.067 13.6484 150.067 14.6562C150.067 15.4062 150.255 15.957 150.63 16.3086C151.005 16.6602 151.497 16.9062 152.106 17.0469C152.716 17.1641 153.407 17.2109 154.181 17.1875C154.954 17.1406 155.739 17.082 156.536 17.0117C157.356 16.9414 158.153 16.9062 158.927 16.9062C159.7 16.8828 160.392 16.9766 161.001 17.1875C161.61 17.375 162.091 17.6914 162.442 18.1367C162.817 18.582 163.005 19.2383 163.005 20.1055C163.005 20.4805 162.876 20.9609 162.618 21.5469C162.384 22.1328 162.056 22.7656 161.634 23.4453C161.235 24.1016 160.755 24.7578 160.192 25.4141C159.653 26.0703 159.079 26.668 158.47 27.207C157.884 27.7227 157.286 28.1562 156.677 28.5078C156.091 28.8359 155.54 29 155.024 29C154.532 29 154.204 28.8242 154.04 28.4727C153.899 28.1211 153.829 27.7695 153.829 27.418ZM179.845 14.2344C179.845 13.6484 179.938 13.1914 180.126 12.8633C180.337 12.5352 180.771 12.3711 181.427 12.3711C181.497 12.3711 181.626 12.3828 181.813 12.4062C182.024 12.4062 182.153 12.4062 182.2 12.4062C182.364 13.1328 182.528 13.9297 182.692 14.7969C182.88 15.6406 183.091 16.4961 183.325 17.3633C183.56 18.2305 183.817 19.0859 184.099 19.9297C184.403 20.7734 184.767 21.5352 185.188 22.2148C185.61 21.7695 185.915 21.2422 186.103 20.6328C186.29 20.0234 186.431 19.4141 186.524 18.8047C186.618 18.1719 186.7 17.5742 186.771 17.0117C186.864 16.4258 187.04 15.9336 187.298 15.5352C187.556 15.1133 187.931 14.8086 188.423 14.6211C188.938 14.4336 189.642 14.4336 190.532 14.6211C191.517 14.6211 192.302 14.8086 192.888 15.1836C193.474 15.5352 193.978 15.9922 194.399 16.5547C194.845 17.0938 195.267 17.6797 195.665 18.3125C196.087 18.9219 196.614 19.4727 197.247 19.9648C197.388 19.6602 197.563 19.2852 197.774 18.8398C197.985 18.3711 198.243 17.8906 198.548 17.3984C198.876 16.8828 199.216 16.3789 199.567 15.8867C199.942 15.3711 200.329 14.9141 200.728 14.5156C201.126 14.0938 201.536 13.7539 201.958 13.4961C202.38 13.2148 202.79 13.0742 203.188 13.0742C204.149 13.0742 204.981 13.3789 205.685 13.9883C206.388 14.5742 206.985 15.3242 207.478 16.2383C207.993 17.1289 208.415 18.1367 208.743 19.2617C209.071 20.3633 209.329 21.4297 209.517 22.4609C209.704 23.4922 209.833 24.4414 209.903 25.3086C209.997 26.1523 210.044 26.7617 210.044 27.1367C210.044 27.4414 209.974 27.6758 209.833 27.8398C209.692 28.0039 209.517 28.1328 209.306 28.2266C209.095 28.2969 208.86 28.3438 208.603 28.3672C208.368 28.3906 208.146 28.4023 207.935 28.4023C207.888 28.4023 207.817 28.4023 207.724 28.4023C207.63 28.3789 207.524 28.3555 207.407 28.332C207.313 28.3086 207.185 28.2734 207.021 28.2266L204.735 17.7148C204.735 17.6445 204.642 17.5156 204.454 17.3281C204.267 17.1172 204.126 16.9883 204.032 16.9414C203.962 16.9414 203.903 16.9297 203.856 16.9062C203.81 16.9062 203.774 16.9062 203.751 16.9062C203.728 16.8828 203.704 16.8711 203.681 16.8711C203.188 16.8711 202.72 17.0703 202.274 17.4688C201.853 17.8672 201.454 18.3711 201.079 18.9805C200.704 19.5898 200.353 20.2695 200.024 21.0195C199.696 21.7695 199.403 22.5195 199.146 23.2695C198.888 23.9961 198.653 24.6758 198.442 25.3086C198.255 25.918 198.103 26.3867 197.985 26.7148C197.892 26.7617 197.704 26.8086 197.423 26.8555C197.142 26.8789 196.954 26.8906 196.86 26.8906C196.204 26.8906 195.7 26.668 195.349 26.2227C194.997 25.7539 194.704 25.1797 194.47 24.5C194.259 23.8203 194.071 23.082 193.907 22.2852C193.767 21.4648 193.579 20.7148 193.345 20.0352C193.134 19.3555 192.829 18.793 192.431 18.3477C192.056 17.8789 191.517 17.6445 190.813 17.6445C190.556 17.6445 190.31 17.9023 190.075 18.418C189.841 18.9336 189.63 19.5898 189.442 20.3867C189.255 21.1602 189.079 22.0039 188.915 22.918C188.751 23.8086 188.61 24.6523 188.493 25.4492C188.399 26.2227 188.329 26.8789 188.282 27.418C188.235 27.957 188.212 28.2266 188.212 28.2266C188.165 28.2969 188.071 28.3789 187.931 28.4727C187.79 28.543 187.638 28.625 187.474 28.7188C187.333 28.8125 187.181 28.8828 187.017 28.9297C186.876 28.9766 186.771 29 186.7 29C186.044 29 185.411 28.707 184.802 28.1211C184.192 27.5117 183.63 26.7383 183.114 25.8008C182.622 24.8398 182.165 23.7852 181.743 22.6367C181.345 21.4883 181.005 20.3633 180.724 19.2617C180.442 18.1602 180.22 17.1641 180.056 16.2734C179.915 15.3828 179.845 14.7031 179.845 14.2344ZM211.485 19.2266C211.485 17.9609 211.638 16.6953 211.942 15.4297C212.247 14.1641 212.728 13.0273 213.384 12.0195C214.063 11.0117 214.931 10.1914 215.985 9.55859C217.063 8.92578 218.364 8.60938 219.888 8.60938C220.755 8.60938 221.517 8.77344 222.173 9.10156C222.829 9.40625 223.38 9.81641 223.825 10.332C224.271 10.8477 224.599 11.457 224.81 12.1602C225.044 12.8398 225.161 13.5547 225.161 14.3047C225.161 15.5 224.88 16.6602 224.317 17.7852C223.778 18.9102 223.04 19.9062 222.103 20.7734C221.188 21.6172 220.134 22.2617 218.938 22.707C217.743 23.1289 216.524 23.2227 215.282 22.9883C215.306 23.668 215.528 24.2188 215.95 24.6406C216.396 25.0391 216.923 25.3438 217.532 25.5547C218.142 25.7656 218.774 25.9062 219.431 25.9766C220.087 26.0234 220.673 26.0469 221.188 26.0469C221.728 26.0469 222.231 26 222.7 25.9062C223.169 25.8125 223.638 25.707 224.106 25.5898C224.575 25.4727 225.044 25.3672 225.513 25.2734C226.005 25.1797 226.521 25.1328 227.06 25.1328C227.271 25.1328 227.481 25.1445 227.692 25.168C227.903 25.1914 228.103 25.25 228.29 25.3438C228.478 25.4141 228.63 25.543 228.747 25.7305C228.864 25.8945 228.923 26.1055 228.923 26.3633C228.923 26.8086 228.759 27.1836 228.431 27.4883C228.103 27.7695 227.681 28.0156 227.165 28.2266C226.673 28.4375 226.122 28.6016 225.513 28.7188C224.903 28.8125 224.306 28.8945 223.72 28.9648C223.157 29.0117 222.63 29.0352 222.138 29.0352C221.669 29.0586 221.317 29.0703 221.083 29.0703C219.583 29.0703 218.235 28.8359 217.04 28.3672C215.845 27.875 214.837 27.207 214.017 26.3633C213.196 25.4961 212.563 24.4648 212.118 23.2695C211.696 22.0508 211.485 20.7031 211.485 19.2266ZM215.212 16.9414C215.212 17.7617 215.317 18.3594 215.528 18.7344C215.763 19.1094 216.313 19.2969 217.181 19.2969C217.79 19.2969 218.388 19.1914 218.974 18.9805C219.56 18.7461 220.087 18.4297 220.556 18.0312C221.048 17.6328 221.435 17.1641 221.716 16.625C221.997 16.0859 222.138 15.5 222.138 14.8672C222.138 14.5156 222.103 14.1523 222.032 13.7773C221.985 13.4023 221.868 13.0625 221.681 12.7578C221.493 12.4297 221.247 12.1719 220.942 11.9844C220.661 11.7734 220.286 11.668 219.817 11.668C219.114 11.668 218.47 11.832 217.884 12.1602C217.321 12.4648 216.841 12.875 216.442 13.3906C216.044 13.8828 215.739 14.4453 215.528 15.0781C215.317 15.6875 215.212 16.3086 215.212 16.9414Z" fill="white"/>
</svg>
